<svg width="20" height="24" viewBox="0 0 20 24" fill="none" xmlns="http://www.w3.org/2000/svg">
<g id="Group">
<path id="Vector" d="M1 12.8C1 12.2477 1.44772 11.8 2 11.8H3.6C4.15228 11.8 4.6 12.2477 4.6 12.8V21.6C4.6 22.1523 4.15228 22.6 3.6 22.6H2C1.44772 22.6 1 22.1523 1 21.6V12.8ZM8.2 2C8.2 1.44772 8.64771 1 9.2 1H10.8C11.3523 1 11.8 1.44772 11.8 2V21.6C11.8 22.1523 11.3523 22.6 10.8 22.6H9.2C8.64772 22.6 8.2 22.1523 8.2 21.6V2ZM15.4 7.4C15.4 6.84772 15.8477 6.4 16.4 6.4H18C18.5523 6.4 19 6.84771 19 7.4V21.6C19 22.1523 18.5523 22.6 18 22.6H16.4C15.8477 22.6 15.4 22.1523 15.4 21.6V7.4Z" stroke="#7D7D7D" stroke-linejoin="round"/>
</g>
</svg>
