<svg xmlns="http://www.w3.org/2000/svg" width="88" height="51" viewBox="0 0 88 51" fill="none">
<path d="M0.5 16.2402C0.5 13.4317 0.500389 11.3554 0.634581 9.71297C0.768297 8.07637 1.03237 6.91465 1.53544 5.92732C2.44624 4.13978 3.89955 2.68647 5.68709 1.77567C6.67441 1.27261 7.83613 1.00853 9.47274 0.874816C11.1152 0.740623 13.1915 0.740234 16 0.740234H72C74.8085 0.740234 76.8848 0.740623 78.5273 0.874816C80.1639 1.00853 81.3256 1.27261 82.3129 1.77567C84.1004 2.68647 85.5538 4.13979 86.4646 5.92732C86.9676 6.91465 87.2317 8.07637 87.3654 9.71297C87.4996 11.3554 87.5 13.4317 87.5 16.2402V39.7402H0.5V16.2402Z" fill="#1B1B1B" stroke="#2A2A2A"/>
<circle cx="18" cy="40.2402" r="10" fill="#202020"/>
</svg>