<svg xmlns="http://www.w3.org/2000/svg" width="88" height="55" viewBox="0 0 88 55" fill="none">
  <mask id="path-1-inside-1_2193_88986" fill="white">
    <path fill-rule="evenodd" clip-rule="evenodd" d="M1.08993 5.70033C0 7.83945 0 10.6397 0 16.2402V36.202C0 37.4579 1.25444e-10 38.4321 0.0491559 39.2212C11.8683 33.8904 27.1658 30.6753 43.875 30.6753C60.5842 30.6753 75.8817 33.8904 87.7008 39.2212C87.75 38.4321 87.75 37.4579 87.75 36.202V16.2402C87.75 10.6397 87.75 7.83945 86.6601 5.70033C85.7013 3.81871 84.1715 2.2889 82.2899 1.33017C80.1508 0.240234 77.3505 0.240234 71.75 0.240234H16C10.3995 0.240234 7.59921 0.240234 5.46009 1.33017C3.57847 2.2889 2.04867 3.81871 1.08993 5.70033Z"/>
  </mask>
  <path fill-rule="evenodd" clip-rule="evenodd" d="M1.08993 5.70033C0 7.83945 0 10.6397 0 16.2402V36.202C0 37.4579 1.25444e-10 38.4321 0.0491559 39.2212C11.8683 33.8904 27.1658 30.6753 43.875 30.6753C60.5842 30.6753 75.8817 33.8904 87.7008 39.2212C87.75 38.4321 87.75 37.4579 87.75 36.202V16.2402C87.75 10.6397 87.75 7.83945 86.6601 5.70033C85.7013 3.81871 84.1715 2.2889 82.2899 1.33017C80.1508 0.240234 77.3505 0.240234 71.75 0.240234H16C10.3995 0.240234 7.59921 0.240234 5.46009 1.33017C3.57847 2.2889 2.04867 3.81871 1.08993 5.70033Z" fill="#B93C3C"/>
  <path d="M1.08993 5.70033L1.98094 6.15432L1.08993 5.70033ZM0.0491559 39.2212L-0.94891 39.2834L-0.858932 40.7278L0.460302 40.1328L0.0491559 39.2212ZM87.7008 39.2212L87.2897 40.1328L88.6089 40.7278L88.6989 39.2834L87.7008 39.2212ZM86.6601 5.70033L85.7691 6.15432V6.15432L86.6601 5.70033ZM82.2899 1.33017L81.8359 2.22118L81.8359 2.22118L82.2899 1.33017ZM5.46009 1.33017L5.91409 2.22118L5.46009 1.33017ZM1 16.2402C1 13.4235 1.00078 11.371 1.13292 9.75369C1.26411 8.14801 1.51977 7.05941 1.98094 6.15432L0.198928 5.24634C-0.42984 6.48037 -0.719143 7.86146 -0.860437 9.59082C-1.00078 11.3085 -1 13.4565 -1 16.2402H1ZM1 36.202V16.2402H-1V36.202H1ZM1.04722 39.159C1.00044 38.4081 1 37.4698 1 36.202H-1C-1 37.446 -1.00044 38.4561 -0.94891 39.2834L1.04722 39.159ZM0.460302 40.1328C12.1316 34.8687 27.2857 31.6753 43.875 31.6753V29.6753C27.0459 29.6753 11.6049 32.9122 -0.36199 38.3096L0.460302 40.1328ZM43.875 31.6753C60.4643 31.6753 75.6184 34.8687 87.2897 40.1328L88.112 38.3097C76.1451 32.9122 60.7041 29.6753 43.875 29.6753V31.6753ZM86.75 36.202C86.75 37.4698 86.7496 38.4081 86.7028 39.159L88.6989 39.2834C88.7504 38.4561 88.75 37.446 88.75 36.202H86.75ZM86.75 16.2402V36.202H88.75V16.2402H86.75ZM85.7691 6.15432C86.2302 7.05941 86.4859 8.14801 86.6171 9.75369C86.7492 11.371 86.75 13.4235 86.75 16.2402H88.75C88.75 13.4565 88.7508 11.3085 88.6104 9.59082C88.4691 7.86146 88.1798 6.48037 87.5511 5.24634L85.7691 6.15432ZM81.8359 2.22118C83.5294 3.08404 84.9062 4.46086 85.7691 6.15432L87.5511 5.24634C86.4965 3.17656 84.8137 1.49377 82.7439 0.439163L81.8359 2.22118ZM71.75 1.24023C74.5668 1.24023 76.6192 1.24101 78.2365 1.37316C79.8422 1.50434 80.9308 1.76001 81.8359 2.22118L82.7439 0.439163C81.5099 -0.189605 80.1288 -0.478908 78.3994 -0.620203C76.6817 -0.760543 74.5338 -0.759766 71.75 -0.759766V1.24023ZM16 1.24023H71.75V-0.759766H16V1.24023ZM5.91409 2.22118C6.81918 1.76001 7.90777 1.50434 9.51345 1.37316C11.1308 1.24101 13.1832 1.24023 16 1.24023V-0.759766C13.2162 -0.759766 11.0683 -0.760543 9.35059 -0.620203C7.62123 -0.478908 6.24013 -0.189605 5.0061 0.439163L5.91409 2.22118ZM1.98094 6.15432C2.8438 4.46086 4.22063 3.08404 5.91409 2.22118L5.0061 0.439163C2.93632 1.49377 1.25354 3.17656 0.198928 5.24634L1.98094 6.15432Z" fill="white" mask="url(#path-1-inside-1_2193_88986)"/>
  <circle cx="44" cy="34.2402" r="19" fill="#D9D9D9" stroke="white" stroke-width="3"/>
</svg>